<?xml version="1.0" standalone="no"?><!DOCTYPE svg PUBLIC "-//W3C//DTD SVG 1.1//EN" "http://www.w3.org/Graphics/SVG/1.1/DTD/svg11.dtd"><svg t="1592559616839" class="icon" viewBox="0 0 1024 1024" version="1.1" xmlns="http://www.w3.org/2000/svg" p-id="8348" xmlns:xlink="http://www.w3.org/1999/xlink" width="200" height="200"><defs><style type="text/css"></style></defs><path d="M863.168 398.912c-1.568 6.56-5.376 16.16-10.752 27.744h0.128l-0.64 1.088c-31.296 67.072-113.024 198.624-113.024 198.624s-0.096-0.32-0.416-0.8l-23.872 41.6h115.104L609.856 960l49.888-199.2h-90.56l31.456-131.712a1282.24 1282.24 0 0 0-91.2 26.08s-48.224 28.288-138.88-54.4c0 0-61.184-53.952-25.728-67.424 15.104-5.76 73.216-13.024 118.976-19.2 61.792-8.384 99.84-12.8 99.84-12.8s-190.592 2.848-235.808-4.288c-45.216-7.104-102.56-82.656-114.784-149.12 0 0-18.88-36.448 40.64-19.2 59.52 17.28 305.92 67.232 305.92 67.232S239.2 297.568 217.888 273.568c-21.344-24-62.752-131.04-57.376-196.8 0 0 2.336-16.416 19.136-12.032 0 0 236.896 108.448 398.912 167.808 161.984 59.36 302.816 89.536 284.64 166.4z" fill="#3296FA" p-id="8349"></path></svg>