<?xml version="1.0" standalone="no"?><!DOCTYPE svg PUBLIC "-//W3C//DTD SVG 1.1//EN" "http://www.w3.org/Graphics/SVG/1.1/DTD/svg11.dtd"><svg t="1592560654178" class="icon" viewBox="0 0 1024 1024" version="1.1" xmlns="http://www.w3.org/2000/svg" p-id="17475" xmlns:xlink="http://www.w3.org/1999/xlink" width="200" height="200"><defs><style type="text/css"></style></defs><path d="M506.054591 880.192733c0 43.505863-63.615876 78.773088-142.089136 78.773088s-142.089136-35.268248-142.089135-78.773088 63.615876-78.773088 142.089135-78.773088 142.089136 35.268248 142.089136 78.773088z m153.385413-78.773088c-78.474282 0-142.089136 35.268248-142.089136 78.773088s63.615876 78.773088 142.089136 78.773088 142.089136-35.268248 142.089135-78.773088-63.615876-78.773088-142.089135-78.773088z" fill="#FFC817" p-id="17476"></path><path d="M825.904293 502.377852s-10.752902-11.024078-22.294772-21.221324V355.234607c0-161.052023-130.558521-291.610544-291.610544-291.610544S220.389456 194.182584 220.389456 355.234607v125.921921c-11.540847 10.197246-22.294772 21.221324-22.294772 21.221324-19.024286 28.53694-64.207347 102.256942-64.207348 171.815157s19.024286 81.449034 26.158777 82.043575c6.616698 0.551562 31.131021-6.063089 60.262502-50.654681 39.425941 131.09985 154.970514 226.037083 291.393603 226.037083 136.639007 0 252.337075-95.236038 291.583938-226.658229 29.309536 45.151339 54.020334 51.829436 60.667731 51.275827 7.134491-0.594541 26.158776-12.485359 26.158777-82.043575S844.928578 530.914792 825.904293 502.377852z" fill="#37474F" p-id="17477"></path><path d="M297.454646 552.317241a375.358947 375.358947 0 0 0-3.473101 51.128471c0 159.245887 99.199303 288.340057 221.567281 288.340057s221.567281-129.09417 221.567281-288.340057a375.522676 375.522676 0 0 0-3.473101-51.128471H297.454646zM435.307294 197.390649c-32.506345 0-58.857503 35.733852-58.857503 79.81379 0 44.079938 26.351158 79.81379 58.857503 79.813791s58.857503-35.733852 58.857502-79.813791c0-44.079938-26.352181-79.81379-58.857502-79.81379z m9.809413 112.660896c-11.82021 0-21.402449-14.639418-21.402449-32.698726s9.582239-32.698726 21.402449-32.698726c11.82021 0 21.402449 14.639418 21.402449 32.698726s-9.582239 32.698726-21.402449 32.698726zM590.476329 197.390649c-32.506345 0-58.857503 35.733852-58.857503 79.81379 0 44.079938 26.351158 79.81379 58.857503 79.813791s58.857503-35.733852 58.857503-79.813791c-0.001023-44.079938-26.352181-79.81379-58.857503-79.81379z m9.93221 82.787518l-0.030699 0.005117c0.001023 0.021489 0.023536 0.033769 0.023536 0.055258 0 0.896416-0.726547 1.622964-1.622964 1.622964-0.738827 0-1.25969-0.544399-1.455141-1.218758l-0.062422 0.00921v0.149403c-3.748371-9.331529-10.383488-15.635095-18.079774-15.635096-7.693216 0-14.325263 6.296403-18.074657 15.620769l-0.059352-0.036839-0.055258-0.012279c-0.264013 0.557702-0.722454 1.00284-1.380441 1.00284a1.647523 1.647523 0 0 1-1.648546-1.648547c0-0.016373 0.017396-0.025583 0.017396-0.040932l-0.035815-0.008186c-0.058328-0.895393-0.166799-1.768273-0.166799-2.688226 0-18.059308 9.582239-32.698726 21.402449-32.698726s21.402449 14.639418 21.402449 32.698726c0 0.966001-0.110517 1.883907-0.173962 2.823302z" fill="#FFFFFF" p-id="17478"></path><path d="M281.18817 536.26566c-5.350868 26.753317-16.646122 146.845463-11.296277 173.59878s27.855418 22.285562 60.046585 22.591531c31.211862 0.296759 67.774593 8.918114 68.369133-30.320563 0.594541-39.237653 0.594541-116.5249 9.512655-145.06184 8.91709-28.53694-126.632095-20.807908-126.632096-20.807908z" fill="#FF3B30" p-id="17479"></path><path d="M274.071076 593.588203l125.538181 40.585347c1.089821-30.820959 3.295046-61.368696 8.211009-77.101005 8.918114-28.53694-126.632095-20.807908-126.632096-20.807908-1.948375 9.739828-4.683672 31.851429-7.117094 57.323566z" fill="#DD2C00" p-id="17480"></path><path d="M512.594541 467.895503c97.846492 0 177.166025-35.671431 177.166025-57.668421 0-16.646122-79.319533-33.887808-177.166025-33.887808-97.845469 0-177.166025 15.458063-177.166026 33.887808 0 20.808932 79.319533 57.668421 177.166026 57.668421z" fill="#FFC817" p-id="17481"></path><path d="M514.378164 489.298975s112.363114 1.189082 202.13572-36.860512c89.771583-38.048571 88.880283-42.358737 98.689696-42.358737 9.809413 0 21.402449 14.123672 26.307156 39.61116 4.904707 25.487487 10.701736 45.552475-10.255575 58.037834-20.956288 12.484336-158.290119 93.190449-313.012993 93.190449h-7.729032c-154.722874 0-292.056706-80.706113-313.012993-93.190449s-15.160281-32.549324-10.255575-58.037834c4.904707-25.487487 16.497743-39.61116 26.307156-39.61116s8.918114 4.310166 98.689696 42.358737 202.136743 36.860513 202.136744 36.860512z" fill="#FF3B30" p-id="17482"></path></svg>