<?xml version="1.0" standalone="no"?><!DOCTYPE svg PUBLIC "-//W3C//DTD SVG 1.1//EN" "http://www.w3.org/Graphics/SVG/1.1/DTD/svg11.dtd"><svg t="1592560800799" class="icon" viewBox="0 0 1024 1024" version="1.1" xmlns="http://www.w3.org/2000/svg" p-id="18353" xmlns:xlink="http://www.w3.org/1999/xlink" width="200" height="200"><defs><style type="text/css"></style></defs><path d="M1023 629.6c0-144.8-144.9-262.7-307.5-262.7-172.3 0-307.9 118-307.9 262.7 0 145 135.7 262.7 307.9 262.7 36.1 0 72.5-9.1 108.7-18.2l99.3 54.3-27.3-90.3c72.7-54.6 126.8-126.9 126.8-208.5zM620.2 589.4c-22.7 0-41-18.4-41-41 0-22.7 18.4-41 41-41 22.7 0 41 18.4 41 41s-18.3 41-41 41z m199.3-0.3c-22.7 0-41-18.4-41-41 0-22.7 18.4-41 41-41 22.7 0 41 18.4 41 41 0 22.7-18.4 41-41 41z m0 0" fill="#00C800" p-id="18354"></path><path d="M362.1 95.3C163.1 95.3 0 231 0 403.2c0 99.5 54.2 181.1 144.9 244.5l-36.2 108.9L235.2 693.1c45.3 8.9 81.6 18.2 126.8 18.2 11.4 0 22.7-0.5 33.8-1.4-7.1-24.2-11.2-49.5-11.2-75.9 0-158.2 135.9-286.6 307.8-286.6 11.8 0 23.4 0.8 34.9 2.2C696.1 203.7 540.1 95.3 362.1 95.3zM240.5 343.7c-27.2 0-49.2-22-49.2-49.2 0-27.2 22-49.2 49.2-49.2 27.2 0 49.2 22 49.2 49.2 0 27.2-22 49.2-49.2 49.2z m252.9 0c-27.2 0-49.2-22-49.2-49.2 0-27.2 22-49.2 49.2-49.2s49.2 22 49.2 49.2c0 27.2-22 49.2-49.2 49.2z m0 0" fill="#00C800" p-id="18355"></path></svg>